<?xml version="1.0" encoding="utf-8"?>
<svg viewBox="0 0 256 256" fill="#FFFFFF" xmlns="http://www.w3.org/2000/svg">
  <rect width="100%" height="100%" fill="white" />
  <defs>
    <clipPath id="clip0_1409_78331">
      <rect width="177" height="38" fill="white"/>
    </clipPath>
  </defs>
  <g clip-path="url(#clip0_1409_78331)" transform="matrix(4.198291778564453, 0, 0, 3.4635930061340336, 63.00000133514396, 62.552678480204975)" style="">
    <mask id="mask0_1409_78331" style="mask-type:luminance" maskUnits="userSpaceOnUse" x="0" y="0" width="177" height="38">
      <path d="M176.641 0H0V37.6977H176.641V0Z" fill="white"/>
    </mask>
    <g mask="url(#mask0_1409_78331)">
      <path fill-rule="evenodd" clip-rule="evenodd" d="M19.4724 7.24306C12.0164 5.20168 3.54346 9.17963 0.821424 17.2191C-1.91945 25.3152 2.42238 34.1001 10.5184 36.841C18.6145 39.5819 27.3994 35.24 30.1409 27.144C32.3807 20.5288 29.8688 13.7776 24.8558 9.92211L24.5849 12.7902C27.3117 15.6729 28.5346 19.8211 27.1309 23.9686C25.1514 29.816 18.6245 32.8895 12.5522 30.834C6.47981 28.7791 3.16191 22.3729 5.14088 16.5255C6.89256 11.3511 12.2054 8.45011 17.3544 9.0919L19.4724 7.24306ZM15.8365 16.9512C17.8714 16.5597 19.9499 18.5728 19.2292 20.7019C18.7264 22.1869 17.0683 22.9688 15.525 22.4459C13.9824 21.9237 13.1392 20.2962 13.6426 18.8107C13.98 17.8115 14.8403 17.1314 15.8365 16.9512ZM15.0799 14.0402C14.0283 14.2304 13.0485 14.6902 12.2466 15.3697C11.4817 16.018 10.8811 16.8682 10.5402 17.8768C10.0227 19.406 10.1993 21.011 10.9035 22.3706C11.6136 23.7419 12.8613 24.8636 14.4776 25.4111C16.0932 25.9581 17.7654 25.8239 19.1638 25.1656C20.5487 24.5138 21.6639 23.3456 22.1814 21.8165C22.5082 20.8515 22.5542 19.9005 22.384 19.0132C22.2603 18.3697 22.0219 17.7567 21.6927 17.1932L22.2927 14.1862C22.404 14.2963 22.5129 14.4088 22.6177 14.5242C23.6481 15.6541 24.3889 17.046 24.6833 18.5734C24.9276 19.8417 24.8623 21.1977 24.3983 22.5678C23.6688 24.7234 22.1031 26.3674 20.163 27.2812C18.2359 28.1885 15.9384 28.3752 13.7274 27.6274C11.5171 26.879 9.80537 25.334 8.82501 23.4422C7.83936 21.5386 7.59442 19.2823 8.32394 17.1255C8.80617 15.7012 9.65463 14.4995 10.7363 13.5833C11.8433 12.6453 13.1981 12.0094 14.6554 11.7433L14.6548 11.7409C15.6905 11.5413 16.7285 11.5566 17.7242 11.7503L15.6145 13.9648C15.4414 13.9813 15.2683 14.0066 15.0946 14.0396L15.0799 14.0402Z" fill="#1C58D9"/>
      <path fill-rule="evenodd" clip-rule="evenodd" d="M22.0771 6.87153L21.662 4.97676L24.1797 0.12915L25.7206 2.72224L28.7353 2.61802L26.0162 7.35552L24.0832 8.07209L17.3944 20.3156L15.3424 19.1987L22.0771 6.87153Z" fill="#1C58D9"/>
    </g>
  </g>
</svg>
